<?xml version="1.0" encoding="UTF-8" standalone="no"?>
<!-- Created with Inkscape (http://www.inkscape.org/) -->

<svg
   xmlns:dc="http://purl.org/dc/elements/1.1/"
   xmlns:cc="http://creativecommons.org/ns#"
   xmlns:rdf="http://www.w3.org/1999/02/22-rdf-syntax-ns#"
   xmlns:svg="http://www.w3.org/2000/svg"
   xmlns="http://www.w3.org/2000/svg"
   xmlns:sodipodi="http://sodipodi.sourceforge.net/DTD/sodipodi-0.dtd"
   xmlns:inkscape="http://www.inkscape.org/namespaces/inkscape"
   version="1.1"
   id="svg2"
   xml:space="preserve"
   width="496.32764"
   height="411.30035"
   viewBox="0 0 496.32764 411.30035"
   sodipodi:docname="logo-1.svg"
   inkscape:version="0.92.5 (2060ec1f9f, 2020-04-08)"><metadata
     id="metadata8"><rdf:RDF><cc:Work
         rdf:about=""><dc:format>image/svg+xml</dc:format><dc:type
           rdf:resource="http://purl.org/dc/dcmitype/StillImage" /><dc:title></dc:title></cc:Work></rdf:RDF></metadata><defs
     id="defs6"><clipPath
       clipPathUnits="userSpaceOnUse"
       id="clipPath22"><path
         d="M 0,700 H 700 V 0 H 0 Z"
         id="path20"
         inkscape:connector-curvature="0" /></clipPath></defs><sodipodi:namedview
     pagecolor="#ffffff"
     bordercolor="#666666"
     borderopacity="1"
     objecttolerance="10"
     gridtolerance="10"
     guidetolerance="10"
     inkscape:pageopacity="0"
     inkscape:pageshadow="2"
     inkscape:window-width="1600"
     inkscape:window-height="870"
     id="namedview4"
     showgrid="false"
     fit-margin-top="0"
     fit-margin-left="0"
     fit-margin-right="0"
     fit-margin-bottom="0"
     inkscape:zoom="0.5057143"
     inkscape:cx="472.88236"
     inkscape:cy="63.886404"
     inkscape:window-x="1366"
     inkscape:window-y="0"
     inkscape:window-maximized="1"
     inkscape:current-layer="g10" /><g
     id="g10"
     inkscape:groupmode="layer"
     inkscape:label="Nupo Energia logo"
     transform="matrix(1.3333333,0,0,-1.3333333,-239.26552,899.71751)"><g
       id="g12"
       transform="translate(231.9985,242.8564)"><path
         d="m 0,0 v -55.107 l -43.439,54.983 h -13.56 v -88.67 h 16.719 v 59.785 L 6.344,-88.918 v 0.124 H 16.719 V 0 Z"
         style="fill:#000000;fill-opacity:1;fill-rule:nonzero;stroke:none"
         id="path14"
         inkscape:connector-curvature="0" /></g><g
       id="g16"><g
         id="g18"
         clip-path="url(#clipPath22)"><g
           id="g24"
           transform="translate(328.2314,242.6074)"><path
             d="m 0,0 h -2.986 v -7.762 c 2.837,0.2 4.429,1.717 4.479,4.254 C 1.542,-1.99 0.995,-0.771 0,0 m -49.858,0 c -0.971,-0.746 -1.493,-1.915 -1.493,-3.408 0,-2.413 1.344,-3.906 3.782,-4.304 V 0 Z"
             style="fill:#000000;fill-opacity:1;fill-rule:nonzero;stroke:none"
             id="path26"
             inkscape:connector-curvature="0" /></g><g
           id="g28"
           transform="translate(400.0078,195.4863)"><path
             d="M 0,0 H -25.104 V 31.423 H 0 C 21.271,31.423 21.396,0 0,0 m 0,47.37 c -13.933,0 -27.89,-0.124 -41.822,-0.124 v -88.67 h 16.718 v 26.099 H 0 c 43.439,0 43.314,62.695 0,62.695"
             style="fill:#000000;fill-opacity:1;fill-rule:nonzero;stroke:none"
             id="path30"
             inkscape:connector-curvature="0" /></g><g
           id="g32"
           transform="translate(485.5176,167.373)"><path
             d="m 0,0 c -20.898,0 -28.761,15.574 -29.134,30.129 -0.373,14.952 8.236,31.82 29.134,31.82 20.898,0 29.258,-16.744 29.01,-31.671 C 28.761,15.698 20.898,0 0,0 m 0,77.15 c -30.651,0 -45.604,-23.436 -45.604,-46.748 0,-23.311 14.43,-45.727 45.604,-45.727 31.174,0 45.23,22.913 45.479,45.851 C 45.729,53.714 30.527,77.15 0,77.15"
             style="fill:#000000;fill-opacity:1;fill-rule:nonzero;stroke:none"
             id="path34"
             inkscape:connector-curvature="0" /></g><g
           id="g36"
           transform="translate(227.4561,71.7627)"><path
             d="M 0,0 H -51.496 V 68.791 H 0 V 56.212 H -38.622 V 40.391 H -1.376 V 28.303 H -38.622 V 12.774 H 0 Z"
             style="fill:#000000;fill-opacity:1;fill-rule:nonzero;stroke:none"
             id="path38"
             inkscape:connector-curvature="0" /></g><g
           id="g40"
           transform="translate(272.2744,71.7627)"><path
             d="m 0,0 v 25.354 c 0,7.372 -4.029,12.973 -11.694,12.973 -7.37,0 -12.383,-6.191 -12.383,-13.562 V 0 h -11.891 v 48.547 h 10.712 l 0.786,-6.584 c 4.913,4.815 9.827,7.272 15.921,7.272 11.4,0 20.539,-8.55 20.539,-23.782 L 11.99,0 Z"
             style="fill:#000000;fill-opacity:1;fill-rule:nonzero;stroke:none"
             id="path42"
             inkscape:connector-curvature="0" /></g><g
           id="g44"
           transform="translate(331.146,101.6377)"><path
             d="M 0,0 C -0.786,6.29 -5.699,9.434 -12.579,9.434 -19.064,9.434 -24.371,6.29 -26.14,0 Z m -26.336,-9.926 c 0.786,-5.994 5.995,-10.318 14.445,-10.318 4.424,0 10.221,1.67 12.973,4.519 l 7.666,-7.565 c -5.11,-5.308 -13.463,-7.863 -20.835,-7.863 -16.706,0 -26.632,10.319 -26.632,25.846 0,14.741 10.024,25.355 25.748,25.355 16.215,0 26.338,-10.025 24.47,-29.974 z"
             style="fill:#000000;fill-opacity:1;fill-rule:nonzero;stroke:none"
             id="path46"
             inkscape:connector-curvature="0" /></g><g
           id="g48"
           transform="translate(362.9932,120.2119)"><path
             d="m 0,0 0.884,-5.602 c 3.734,5.995 8.746,6.878 13.659,6.878 5.014,0 9.827,-1.964 12.481,-4.618 l -5.406,-10.417 c -2.455,2.064 -4.716,3.145 -8.647,3.145 -6.289,0 -12.087,-3.341 -12.087,-12.284 V -48.449 H -11.105 V 0 Z"
             style="fill:#000000;fill-opacity:1;fill-rule:nonzero;stroke:none"
             id="path50"
             inkscape:connector-curvature="0" /></g><g
           id="g52"
           transform="translate(403.9756,97.2158)"><path
             d="m 0,0 c 0,-8.452 5.7,-13.464 12.678,-13.464 6.879,0 12.578,5.11 12.578,13.464 0,8.353 -5.699,13.659 -12.578,13.659 C 5.7,13.659 0,8.451 0,0 m 28.598,27.909 8.845,-6.682 -5.405,-6.879 C 35.771,10.122 37.147,5.307 37.147,0 c 0,-5.995 -2.259,-14.446 -10.219,-18.084 8.057,-4.027 10.023,-9.827 10.023,-16.017 0,-13.367 -10.221,-21.622 -24.273,-21.622 -14.054,0 -24.569,8.551 -24.569,21.622 H 0 c 0,-6.291 5.798,-10.419 12.678,-10.419 6.879,0 12.284,3.736 12.284,10.419 0,6.682 -6.289,9.73 -12.284,9.73 -15.134,0 -24.569,9.237 -24.569,24.371 0,15.134 11.007,24.567 24.569,24.567 3.833,0 7.762,-0.49 11.104,-2.751 z"
             style="fill:#000000;fill-opacity:1;fill-rule:nonzero;stroke:none"
             id="path54"
             inkscape:connector-curvature="0" /></g><path
           d="m 448.796,71.763 h 11.989 v 48.645 h -11.989 z m 13.069,62.108 c 0,-9.336 -14.151,-9.336 -14.151,0 0,9.336 14.151,9.336 14.151,0"
           style="fill:#000000;fill-opacity:1;fill-rule:nonzero;stroke:none"
           id="path56"
           inkscape:connector-curvature="0" /><g
           id="g58"
           transform="translate(480.9316,96.0352)"><path
             d="m 0,0 c 0,-9.236 6.387,-14.739 14.349,-14.739 18.868,0 18.868,29.383 0,29.383 C 6.387,14.644 0,9.238 0,0 M 29.089,24.177 H 40.586 V -24.272 H 29.285 l -0.59,7.075 c -2.752,-5.699 -10.319,-8.451 -15.722,-8.549 -14.349,-0.099 -24.962,8.745 -24.962,25.746 0,16.707 11.104,25.453 25.256,25.355 6.485,0 12.676,-3.046 15.428,-7.861 z"
             style="fill:#000000;fill-opacity:1;fill-rule:nonzero;stroke:none"
             id="path60"
             inkscape:connector-curvature="0" /></g><g
           id="g62"
           transform="translate(290.2656,153.9883)"><path
             d="M 0,0 C 0.05,-0.05 0.124,-0.1 0.174,-0.149 1.816,-1.493 3.757,-1.866 5.324,-1.22 3.508,-0.896 1.717,-0.498 0,0 m 34.98,47.221 v 10.05 C 29.208,54.037 22.69,52.047 15.898,51.649 6.618,51.102 -2.189,53.465 -9.604,57.919 V 47.743 C -3.906,45.105 2.363,43.414 8.981,42.842 9.827,42.767 11.071,42.668 11.419,42.12 14.853,36.522 15.923,31.97 8.782,29.108 5.374,27.74 2.015,25.675 -0.672,23.162 c -1.12,-1.045 -2.065,-2.189 -2.786,-3.408 2.064,-2.165 4.578,-3.757 7.463,-4.827 0.672,1.17 1.792,2.289 3.409,3.384 2.363,1.592 5.075,2.637 7.613,3.93 4.254,2.215 7.339,5.549 7.738,10.375 0.273,3.384 -0.548,6.892 -0.896,10.674 0.049,0.024 0.447,0.099 0.821,0.148 4.304,0.772 8.434,2.066 12.29,3.783 m 0,0 v 10.05 C 29.208,54.037 22.69,52.047 15.898,51.649 6.618,51.102 -2.189,53.465 -9.604,57.919 V 47.743 C -3.906,45.105 2.363,43.414 8.981,42.842 9.827,42.767 11.071,42.668 11.419,42.12 14.853,36.522 15.923,31.97 8.782,29.108 5.374,27.74 2.015,25.675 -0.672,23.162 c -1.12,-1.045 -2.065,-2.189 -2.786,-3.408 2.064,-2.165 4.578,-3.757 7.463,-4.827 0.672,1.17 1.792,2.289 3.409,3.384 2.363,1.592 5.075,2.637 7.613,3.93 4.254,2.215 7.339,5.549 7.738,10.375 0.273,3.384 -0.548,6.892 -0.896,10.674 0.049,0.024 0.447,0.099 0.821,0.148 4.304,0.772 8.434,2.066 12.29,3.783 m 0,0 v 10.05 C 29.208,54.037 22.69,52.047 15.898,51.649 6.618,51.102 -2.189,53.465 -9.604,57.919 V 47.743 C -3.906,45.105 2.363,43.414 8.981,42.842 9.827,42.767 11.071,42.668 11.419,42.12 14.853,36.522 15.923,31.97 8.782,29.108 5.374,27.74 2.015,25.675 -0.672,23.162 c -1.12,-1.045 -2.065,-2.189 -2.786,-3.408 2.064,-2.165 4.578,-3.757 7.463,-4.827 0.672,1.17 1.792,2.289 3.409,3.384 2.363,1.592 5.075,2.637 7.613,3.93 4.254,2.215 7.339,5.549 7.738,10.375 0.273,3.384 -0.548,6.892 -0.896,10.674 0.049,0.024 0.447,0.099 0.821,0.148 4.304,0.772 8.434,2.066 12.29,3.783"
             style="fill:#26acc9;fill-opacity:1;fill-rule:nonzero;stroke:none"
             id="path64"
             inkscape:connector-curvature="0" /></g><g
           id="g66"
           transform="translate(341.8403,207.6523)"><path
             d="m 0,0 v -20.824 c 0,-26.223 -16.097,-39.632 -38.389,-39.632 -2.687,0 -5.324,0.198 -7.861,0.597 -1.817,0.323 -3.608,0.721 -5.325,1.218 -15.077,4.405 -26.197,16.869 -26.197,37.817 V 1.194 c 4.677,-5.025 10.274,-9.131 16.594,-12.091 v -9.927 c 0,-7.887 2.214,-13.957 6.145,-18.062 2.065,-2.165 4.578,-3.757 7.464,-4.827 2.761,-1.019 5.896,-1.542 9.305,-1.542 13.807,0 21.669,9.23 21.669,24.431 v 9.404 C -10.3,-8.683 -4.677,-4.776 0,0"
             style="fill:#26acc9;fill-opacity:1;fill-rule:nonzero;stroke:none"
             id="path68"
             inkscape:connector-curvature="0" /></g><g
           id="g70"
           transform="translate(329.7241,239.0996)"><path
             d="m 0,0 c -0.05,-2.537 -1.642,-4.055 -4.479,-4.254 -0.198,-0.05 -0.422,-0.05 -0.646,-0.05 h -42.693 c -0.448,0 -0.846,0.025 -1.244,0.1 -2.438,0.397 -3.782,1.891 -3.782,4.304 0,1.493 0.523,2.662 1.493,3.408 0.846,0.697 2.016,1.07 3.508,1.07 14.306,0.025 28.636,0.025 42.942,0 1.418,0 2.587,-0.373 3.408,-1.07 C -0.498,2.737 0.05,1.518 0,0"
             style="fill:#26acc9;fill-opacity:1;fill-rule:nonzero;stroke:none"
             id="path72"
             inkscape:connector-curvature="0" /></g><g
           id="g74"
           transform="translate(302.9751,219.3311)"><path
             d="m 0,0 c -5.071,0.001 -10.141,-0.018 -15.211,0.007 -3.247,0.016 -5.077,1.585 -5.124,4.303 -0.047,2.682 1.785,4.579 4.931,4.605 C -4.937,9 5.532,8.997 16,8.921 19.134,8.898 21.055,6.996 21.045,4.38 21.036,1.627 19.096,0.017 15.702,0.005 10.468,-0.014 5.234,0 0,0"
             style="fill:#26acc9;fill-opacity:1;fill-rule:nonzero;stroke:none"
             id="path76"
             inkscape:connector-curvature="0" /></g><g
           id="g78"
           transform="translate(342.4126,281.3193)"><path
             d="m 0,0 h -12.813 v 40.952 c 0,4.254 2.563,7.239 6.22,7.339 C -2.762,48.391 0,45.455 0,41.051 0.025,27.467 0,13.858 0,0 m -64.562,0 h -12.813 v 40.803 c 0,4.254 2.563,7.239 6.22,7.339 3.832,0.099 6.593,-2.836 6.593,-7.24 0.025,-13.535 0,-27.093 0,-40.902 m 79.415,-9.18 c 0.024,5.648 -0.598,6.593 -5.896,8.659 v 2.835 c 0.024,12.29 0.024,24.581 0,36.872 0,1.467 -0.05,2.935 -0.2,4.403 C 7.937,51.6 0.846,57.521 -7.439,57.173 -15.201,56.85 -21.67,50.058 -21.695,42.121 c -0.025,-4.876 0,-9.777 -0.025,-14.654 V 0 h -33.885 v 2.165 c 0.024,12.29 0.024,24.581 0,36.871 0,1.468 -0.05,2.936 -0.199,4.403 -0.821,8.012 -7.912,13.933 -16.196,13.584 -7.763,-0.323 -14.231,-7.115 -14.256,-15.051 -0.025,-4.876 0,-9.778 -0.025,-14.654 V 0 h -0.05 v -0.597 c -5.026,-1.268 -6.245,-2.811 -6.245,-7.613 0,-7.861 -0.149,-15.748 0.05,-23.61 0.099,-3.807 0.498,-7.688 1.368,-11.395 2.215,-9.38 6.693,-17.639 12.813,-24.282 v 15.4 c -3.508,6.444 -5.473,13.858 -5.349,21.72 0.1,6.767 0,13.559 0,20.5 h 18.386 v -0.074 h 52.321 v 0.124 h 18.46 l 0.075,-0.074 c 0.124,-0.174 0.249,-0.324 0.249,-0.423 -0.224,-10.773 1.318,-21.62 -1.443,-32.269 -1.07,-4.13 -2.762,-8.036 -4.926,-11.594 v -14.504 c 8.956,9.106 14.604,21.346 15.25,34.956 0.373,8.16 0.15,16.37 0.175,24.555"
             style="fill:#26acc9;fill-opacity:1;fill-rule:nonzero;stroke:none"
             id="path80"
             inkscape:connector-curvature="0" /></g><g
           id="g82"
           transform="translate(245.9985,572.8564)"><path
             d="m 0,0 v -55.107 l -43.439,54.982 h -13.56 v -88.669 h 16.719 v 59.785 L 6.344,-88.918 v 0.124 H 16.719 V 0 Z"
             style="fill:#26acc9;fill-opacity:1;fill-rule:nonzero;stroke:none"
             id="path84"
             inkscape:connector-curvature="0" /></g><g
           id="g86"
           transform="translate(342.2314,572.6079)"><path
             d="m 0,0 h -2.986 v -7.763 c 2.837,0.2 4.429,1.717 4.479,4.255 C 1.542,-1.991 0.995,-0.771 0,0 m -49.858,0 c -0.971,-0.747 -1.493,-1.916 -1.493,-3.409 0,-2.413 1.344,-3.905 3.782,-4.304 V 0 Z"
             style="fill:#26acc9;fill-opacity:1;fill-rule:nonzero;stroke:none"
             id="path88"
             inkscape:connector-curvature="0" /></g><g
           id="g90"
           transform="translate(414.0078,525.4863)"><path
             d="M 0,0 H -25.104 V 31.423 H 0 C 21.271,31.423 21.396,0 0,0 m 0,47.37 c -13.933,0 -27.89,-0.124 -41.822,-0.124 v -88.67 h 16.718 v 26.099 H 0 c 43.439,0 43.314,62.695 0,62.695"
             style="fill:#26acc9;fill-opacity:1;fill-rule:nonzero;stroke:none"
             id="path92"
             inkscape:connector-curvature="0" /></g><g
           id="g94"
           transform="translate(499.5176,497.373)"><path
             d="M 0,0 C -20.898,0 -28.761,15.574 -29.134,30.128 -29.507,45.081 -20.898,61.949 0,61.949 20.898,61.949 29.258,45.206 29.01,30.278 28.761,15.699 20.898,0 0,0 m 0,77.15 c -30.651,0 -45.604,-23.436 -45.604,-46.748 0,-23.312 14.43,-45.728 45.604,-45.728 31.174,0 45.23,22.914 45.479,45.853 C 45.729,53.714 30.527,77.15 0,77.15"
             style="fill:#26acc9;fill-opacity:1;fill-rule:nonzero;stroke:none"
             id="path96"
             inkscape:connector-curvature="0" /></g><g
           id="g98"
           transform="translate(241.4561,401.7627)"><path
             d="M 0,0 H -51.496 V 68.792 H 0 V 56.212 H -38.622 V 40.391 H -1.376 V 28.303 H -38.622 V 12.775 H 0 Z"
             style="fill:#26acc9;fill-opacity:1;fill-rule:nonzero;stroke:none"
             id="path100"
             inkscape:connector-curvature="0" /></g><g
           id="g102"
           transform="translate(286.2744,401.7627)"><path
             d="m 0,0 v 25.355 c 0,7.37 -4.029,12.972 -11.694,12.972 -7.37,0 -12.383,-6.192 -12.383,-13.562 V 0 h -11.891 v 48.547 h 10.712 l 0.786,-6.585 c 4.913,4.816 9.827,7.273 15.921,7.273 11.4,0 20.539,-8.55 20.539,-23.782 L 11.99,0 Z"
             style="fill:#26acc9;fill-opacity:1;fill-rule:nonzero;stroke:none"
             id="path104"
             inkscape:connector-curvature="0" /></g><g
           id="g106"
           transform="translate(345.146,431.6382)"><path
             d="M 0,0 C -0.786,6.29 -5.699,9.433 -12.579,9.433 -19.064,9.433 -24.371,6.29 -26.14,0 Z m -26.336,-9.926 c 0.786,-5.995 5.995,-10.319 14.445,-10.319 4.424,0 10.221,1.67 12.973,4.52 l 7.666,-7.565 c -5.11,-5.308 -13.463,-7.863 -20.835,-7.863 -16.706,0 -26.632,10.319 -26.632,25.845 0,14.741 10.024,25.355 25.748,25.355 16.215,0 26.338,-10.024 24.471,-29.973 z"
             style="fill:#26acc9;fill-opacity:1;fill-rule:nonzero;stroke:none"
             id="path108"
             inkscape:connector-curvature="0" /></g><g
           id="g110"
           transform="translate(376.9932,450.2114)"><path
             d="m 0,0 0.884,-5.602 c 3.734,5.995 8.746,6.879 13.659,6.879 5.014,0 9.827,-1.964 12.481,-4.618 l -5.406,-10.418 c -2.455,2.064 -4.716,3.145 -8.647,3.145 -6.289,0 -12.087,-3.341 -12.087,-12.284 V -48.449 H -11.105 V 0 Z"
             style="fill:#26acc9;fill-opacity:1;fill-rule:nonzero;stroke:none"
             id="path112"
             inkscape:connector-curvature="0" /></g><g
           id="g114"
           transform="translate(417.9756,427.2153)"><path
             d="m 0,0 c 0,-8.452 5.7,-13.464 12.678,-13.464 6.879,0 12.578,5.11 12.578,13.464 0,8.354 -5.699,13.66 -12.578,13.66 C 5.7,13.66 0,8.452 0,0 m 28.598,27.91 8.845,-6.682 -5.405,-6.88 C 35.771,10.123 37.147,5.307 37.147,0 c 0,-5.994 -2.259,-14.446 -10.219,-18.083 8.057,-4.028 10.023,-9.828 10.023,-16.017 0,-13.367 -10.221,-21.622 -24.273,-21.622 -14.054,0 -24.569,8.551 -24.569,21.622 L 0,-34.1 c 0,-6.292 5.798,-10.419 12.678,-10.419 6.879,0 12.284,3.735 12.284,10.419 0,6.682 -6.289,9.729 -12.284,9.729 -15.134,0 -24.569,9.237 -24.569,24.371 0,15.134 11.007,24.568 24.569,24.568 3.833,0 7.762,-0.491 11.104,-2.752 z"
             style="fill:#26acc9;fill-opacity:1;fill-rule:nonzero;stroke:none"
             id="path116"
             inkscape:connector-curvature="0" /></g><path
           d="m 462.796,401.763 h 11.989 v 48.645 h -11.989 z m 13.069,62.109 c 0,-9.337 -14.151,-9.337 -14.151,0 0,9.335 14.151,9.335 14.151,0"
           style="fill:#26acc9;fill-opacity:1;fill-rule:nonzero;stroke:none"
           id="path118"
           inkscape:connector-curvature="0" /><g
           id="g120"
           transform="translate(494.9316,426.0356)"><path
             d="m 0,0 c 0,-9.236 6.387,-14.74 14.349,-14.74 18.868,0 18.868,29.383 0,29.383 C 6.387,14.643 0,9.238 0,0 M 29.089,24.176 H 40.586 V -24.273 H 29.285 l -0.59,7.075 c -2.752,-5.699 -10.319,-8.451 -15.722,-8.549 -14.349,-0.098 -24.962,8.746 -24.962,25.747 0,16.707 11.104,25.453 25.256,25.355 6.485,0 12.676,-3.047 15.428,-7.861 z"
             style="fill:#26acc9;fill-opacity:1;fill-rule:nonzero;stroke:none"
             id="path122"
             inkscape:connector-curvature="0" /></g><g
           id="g124"
           transform="translate(304.2656,483.9878)"><path
             d="M 0,0 C 0.05,-0.05 0.124,-0.099 0.174,-0.149 1.816,-1.493 3.757,-1.866 5.324,-1.219 3.508,-0.896 1.717,-0.498 0,0 M 34.98,47.221 V 57.272 C 29.208,54.038 22.69,52.047 15.898,51.649 6.618,51.102 -2.189,53.465 -9.604,57.919 V 47.743 c 5.698,-2.637 11.967,-4.328 18.585,-4.901 0.846,-0.074 2.09,-0.174 2.438,-0.721 3.434,-5.598 4.504,-10.151 -2.637,-13.012 -3.408,-1.368 -6.767,-3.434 -9.454,-5.946 -1.12,-1.045 -2.065,-2.19 -2.786,-3.409 2.064,-2.164 4.578,-3.756 7.463,-4.826 0.672,1.169 1.792,2.288 3.409,3.383 2.363,1.592 5.075,2.637 7.613,3.931 4.254,2.215 7.339,5.548 7.738,10.375 0.273,3.383 -0.548,6.891 -0.896,10.673 0.049,0.025 0.447,0.1 0.821,0.149 4.304,0.771 8.434,2.065 12.29,3.782 m 0,0 V 57.272 C 29.208,54.038 22.69,52.047 15.898,51.649 6.618,51.102 -2.189,53.465 -9.604,57.919 V 47.743 c 5.698,-2.637 11.967,-4.328 18.585,-4.901 0.846,-0.074 2.09,-0.174 2.438,-0.721 3.434,-5.598 4.504,-10.151 -2.637,-13.012 -3.408,-1.368 -6.767,-3.434 -9.454,-5.946 -1.12,-1.045 -2.065,-2.19 -2.786,-3.409 2.064,-2.164 4.578,-3.756 7.463,-4.826 0.672,1.169 1.792,2.288 3.409,3.383 2.363,1.592 5.075,2.637 7.613,3.931 4.254,2.215 7.339,5.548 7.738,10.375 0.273,3.383 -0.548,6.891 -0.896,10.673 0.049,0.025 0.447,0.1 0.821,0.149 4.304,0.771 8.434,2.065 12.29,3.782 m 0,0 V 57.272 C 29.208,54.038 22.69,52.047 15.898,51.649 6.618,51.102 -2.189,53.465 -9.604,57.919 V 47.743 c 5.698,-2.637 11.967,-4.328 18.585,-4.901 0.846,-0.074 2.09,-0.174 2.438,-0.721 3.434,-5.598 4.504,-10.151 -2.637,-13.012 -3.408,-1.368 -6.767,-3.434 -9.454,-5.946 -1.12,-1.045 -2.065,-2.19 -2.786,-3.409 2.064,-2.164 4.578,-3.756 7.463,-4.826 0.672,1.169 1.792,2.288 3.409,3.383 2.363,1.592 5.075,2.637 7.613,3.931 4.254,2.215 7.339,5.548 7.738,10.375 0.273,3.383 -0.548,6.891 -0.896,10.673 0.049,0.025 0.447,0.1 0.821,0.149 4.304,0.771 8.434,2.065 12.29,3.782"
             style="fill:#000000;fill-opacity:1;fill-rule:nonzero;stroke:none"
             id="path126"
             inkscape:connector-curvature="0" /></g><g
           id="g128"
           transform="translate(355.8398,537.6523)"><path
             d="m 0,0 v -20.824 c 0,-26.222 -16.097,-39.633 -38.388,-39.633 -2.687,0 -5.324,0.2 -7.862,0.598 -1.816,0.323 -3.607,0.721 -5.324,1.219 -15.077,4.403 -26.198,16.868 -26.198,37.816 V 1.194 c 4.677,-5.025 10.275,-9.131 16.594,-12.091 v -9.927 c 0,-7.886 2.215,-13.957 6.145,-18.062 2.065,-2.165 4.578,-3.757 7.464,-4.827 2.762,-1.02 5.897,-1.542 9.305,-1.542 13.808,0 21.67,9.23 21.67,24.431 v 9.405 C -10.3,-8.683 -4.677,-4.777 0,0"
             style="fill:#000000;fill-opacity:1;fill-rule:nonzero;stroke:none"
             id="path130"
             inkscape:connector-curvature="0" /></g><g
           id="g132"
           transform="translate(343.7241,569.0996)"><path
             d="m 0,0 c -0.05,-2.538 -1.642,-4.055 -4.479,-4.254 -0.198,-0.05 -0.422,-0.05 -0.646,-0.05 h -42.693 c -0.448,0 -0.846,0.025 -1.244,0.099 -2.438,0.399 -3.782,1.892 -3.782,4.305 0,1.492 0.523,2.662 1.493,3.408 0.846,0.697 2.016,1.07 3.508,1.07 14.306,0.025 28.636,0.025 42.942,0 1.418,0 2.587,-0.373 3.408,-1.07 C -0.498,2.737 0.05,1.518 0,0"
             style="fill:#000000;fill-opacity:1;fill-rule:nonzero;stroke:none"
             id="path134"
             inkscape:connector-curvature="0" /></g><g
           id="g136"
           transform="translate(316.9751,549.3311)"><path
             d="m 0,0 c -5.071,0 -10.141,-0.018 -15.211,0.007 -3.247,0.016 -5.077,1.585 -5.124,4.303 -0.047,2.683 1.785,4.579 4.931,4.605 C -4.937,9 5.532,8.997 16,8.921 19.134,8.898 21.055,6.996 21.045,4.38 21.036,1.627 19.096,0.016 15.702,0.004 10.468,-0.014 5.234,0 0,0"
             style="fill:#000000;fill-opacity:1;fill-rule:nonzero;stroke:none"
             id="path138"
             inkscape:connector-curvature="0" /></g><g
           id="g140"
           transform="translate(356.4121,611.3198)"><path
             d="m 0,0 h -12.813 v 40.951 c 0,4.255 2.563,7.24 6.22,7.34 C -2.761,48.39 0,45.455 0,41.051 0.025,27.467 0,13.858 0,0 m -64.562,0 h -12.812 v 40.802 c 0,4.254 2.562,7.24 6.22,7.34 3.831,0.099 6.592,-2.837 6.592,-7.241 0.025,-13.534 0,-27.093 0,-40.901 m 79.416,-9.181 c 0.024,5.648 -0.598,6.594 -5.897,8.659 v 2.836 c 0.024,12.29 0.024,24.581 0,36.871 0,1.468 -0.05,2.936 -0.199,4.403 -0.821,8.012 -7.912,13.933 -16.196,13.584 -7.763,-0.323 -14.231,-7.115 -14.256,-15.051 -0.025,-4.877 0,-9.778 -0.025,-14.654 V 0 h -33.886 v 2.165 c 0.025,12.29 0.025,24.58 0,36.871 0,1.467 -0.049,2.935 -0.199,4.403 -0.821,8.011 -7.911,13.933 -16.196,13.584 -7.763,-0.323 -14.231,-7.115 -14.256,-15.052 -0.025,-4.876 0,-9.777 -0.025,-14.654 V 0 h -0.05 v -0.597 c -5.025,-1.269 -6.244,-2.812 -6.244,-7.613 0,-7.862 -0.15,-15.748 0.05,-23.61 0.099,-3.807 0.497,-7.688 1.368,-11.395 2.214,-9.38 6.692,-17.639 12.813,-24.283 v 15.401 c -3.509,6.444 -5.474,13.858 -5.349,21.72 0.099,6.767 0,13.559 0,20.5 h 18.385 v -0.075 h 52.321 v 0.125 H 5.474 l 0.075,-0.075 c 0.124,-0.174 0.248,-0.323 0.248,-0.423 -0.224,-10.773 1.319,-21.62 -1.443,-32.268 -1.07,-4.13 -2.761,-8.036 -4.926,-11.594 v -14.504 c 8.957,9.105 14.604,21.346 15.251,34.955 0.373,8.16 0.149,16.37 0.175,24.555"
             style="fill:#000000;fill-opacity:1;fill-rule:nonzero;stroke:none"
             id="path142"
             inkscape:connector-curvature="0" /></g></g></g><rect
       id="rect3847"
       width="372.24573"
       height="308.47528"
       x="179.44914"
       y="-674.78815"
       transform="scale(1,-1)"
       style="fill:none;stroke-width:0.75" /></g></svg>